<?xml version="1.0" standalone="no"?>
<!DOCTYPE svg PUBLIC "-//W3C//DTD SVG 20010904//EN"
 "http://www.w3.org/TR/2001/REC-SVG-20010904/DTD/svg10.dtd">
<svg version="1.0" xmlns="http://www.w3.org/2000/svg"
 width="394.000000pt" height="394.000000pt" viewBox="0 0 394.000000 394.000000"
 preserveAspectRatio="xMidYMid meet">
<metadata>
Created by potrace 1.11, written by Peter Selinger 2001-2013
</metadata>
<g transform="translate(0.000000,394.000000) scale(0.100000,-0.100000)"
fill="#000000" stroke="none">
<path d="M1954 3462 c-151 -126 -270 -282 -364 -477 -83 -170 -142 -345 -177
-523 l-27 -132 -61 117 c-33 65 -80 147 -105 183 -137 203 -320 297 -589 303
-104 2 -129 -11 -59 -32 101 -30 172 -83 211 -156 20 -37 22 -55 23 -260 1
-122 6 -244 13 -274 6 -29 11 -55 11 -57 0 -2 -29 16 -65 41 -91 62 -176 87
-295 87 -96 0 -268 -26 -390 -59 -80 -22 -92 -47 -30 -57 49 -8 110 -37 162
-78 60 -47 138 -176 271 -448 179 -366 208 -394 485 -448 l144 -28 -89 -33
c-115 -43 -208 -94 -372 -204 -179 -120 -238 -147 -319 -147 -111 0 -173 40
-198 128 -12 40 -20 52 -32 50 -14 -3 -17 -17 -16 -84 2 -147 67 -240 218
-314 336 -164 853 -173 1158 -19 138 69 232 199 247 341 l8 72 -36 40 c-22 24
-64 52 -108 73 -40 18 -73 35 -73 36 0 1 35 2 78 2 88 0 127 9 135 30 8 20
-16 42 -61 56 -61 18 -306 22 -397 6 -73 -13 -89 -13 -185 4 -366 65 -381 77
-566 456 -68 139 -140 278 -160 310 -59 92 -137 167 -207 199 l-62 28 75 18
c98 23 265 48 324 48 75 0 180 -28 243 -66 97 -59 127 -95 164 -198 71 -198
207 -430 326 -557 49 -51 85 -79 141 -106 70 -35 82 -38 196 -43 l121 -6 110
-56 111 -56 -4 33 c-3 28 3 39 40 77 42 43 345 308 351 308 2 0 -11 -30 -30
-66 -65 -130 -29 -177 92 -120 165 77 374 283 519 509 74 115 67 110 184 135
23 6 50 19 60 30 28 33 245 105 352 117 87 10 245 -26 352 -81 l37 -19 -67 -1
c-132 -2 -262 -79 -352 -206 -48 -68 -114 -194 -222 -428 -52 -110 -83 -150
-145 -187 -103 -60 -242 -76 -478 -53 -376 37 -518 16 -632 -95 -50 -48 -54
-56 -51 -91 3 -34 6 -39 31 -42 19 -2 47 9 90 36 61 39 181 102 192 102 4 0
-7 -17 -24 -37 -42 -51 -43 -108 -3 -148 32 -33 106 -69 181 -88 37 -10 62
-23 77 -42 22 -28 22 -30 6 -58 -47 -80 -153 -141 -278 -159 -143 -20 -251 23
-302 122 -22 41 -23 54 -18 143 3 57 1 97 -4 97 -16 0 -25 -50 -25 -135 0 -70
4 -86 28 -127 29 -49 88 -97 146 -116 19 -7 71 -12 116 -12 143 0 269 54 338
145 l33 42 44 -65 c50 -72 127 -135 231 -187 99 -51 172 -69 269 -68 172 2
338 55 491 155 92 61 199 156 199 178 0 24 -32 20 -79 -9 -82 -50 -140 -64
-237 -58 -69 4 -97 11 -159 41 -68 32 -94 54 -243 204 -134 134 -180 174 -231
200 l-64 32 84 0 c155 0 297 53 364 135 19 22 53 81 76 130 167 358 221 451
303 521 101 87 236 123 343 91 28 -8 54 -13 57 -10 18 19 -4 38 -96 82 -236
115 -388 120 -643 22 -64 -25 -76 -27 -70 -13 3 9 18 62 32 117 22 87 26 133
33 360 5 143 16 305 24 359 15 105 9 143 -21 132 -8 -3 -16 -6 -17 -6 -2 0
-50 -54 -106 -121 -164 -191 -265 -270 -493 -379 -78 -37 -162 -81 -187 -98
-24 -17 -45 -30 -46 -29 -1 1 -9 39 -18 84 -25 123 -60 219 -152 418 -104 224
-117 274 -113 420 4 106 3 110 -17 113 -14 2 -42 -14 -80 -46z m71 -94 c0
-141 15 -193 124 -425 85 -181 124 -290 145 -413 l13 -78 -67 -70 c-115 -120
-171 -233 -210 -422 -21 -104 -28 -274 -15 -363 4 -26 4 -73 0 -104 l-7 -57
-32 86 c-71 189 -206 357 -381 476 l-100 68 -43 105 -43 104 11 77 c51 354
212 730 406 948 54 61 182 180 194 180 3 0 6 -51 5 -112z m1156 -380 c-7 -46
-14 -99 -17 -118 l-6 -35 -14 28 c-8 15 -18 27 -22 27 -5 0 -22 -35 -40 -78
-38 -94 -118 -188 -190 -224 -63 -32 -540 -174 -549 -164 -16 16 66 70 217
143 85 41 187 96 225 121 84 56 208 173 317 300 44 51 83 91 86 88 2 -3 -1
-43 -7 -88z m-2345 -109 c156 -39 262 -118 365 -273 90 -133 179 -318 179
-370 l-1 -41 -19 23 c-11 13 -48 73 -82 134 -35 60 -91 145 -125 188 -70 87
-233 245 -284 274 l-34 20 43 -51 c101 -121 118 -225 68 -403 -18 -64 -29
-131 -33 -203 -6 -103 -7 -107 -24 -91 -37 34 -53 143 -55 384 -1 208 -3 229
-23 276 -25 57 -76 111 -136 143 l-40 21 65 -6 c36 -4 97 -15 136 -25z m594
-732 c0 -5 -4 -5 -10 -2 -5 3 -10 14 -10 23 0 15 2 15 10 2 5 -8 10 -19 10
-23z m1410 -206 c-61 -99 -132 -188 -222 -279 -185 -187 -378 -304 -378 -229
0 89 179 308 343 419 61 41 252 138 274 138 8 0 1 -20 -17 -49z m-1719 -211
c109 -132 228 -239 372 -337 56 -39 93 -71 88 -76 -14 -14 -160 11 -219 38
-70 32 -181 143 -254 255 -49 75 -158 279 -158 296 0 16 82 -69 171 -176z
m1149 -544 c-76 -27 -188 -82 -263 -130 -70 -45 -93 -49 -89 -16 3 28 51 81
99 111 47 29 170 58 248 58 l70 0 -65 -23z m-660 -18 c30 -5 59 -13 64 -16 17
-10 -28 -21 -89 -21 -79 -1 -308 30 -298 40 20 19 217 18 323 -3z m1155 -56
c70 -37 112 -75 288 -259 69 -73 102 -99 161 -129 136 -67 272 -70 391 -8 l50
26 -25 -27 c-36 -38 -205 -149 -274 -180 -126 -56 -323 -86 -431 -66 -67 12
-215 82 -287 136 -61 45 -150 170 -146 204 3 22 10 27 48 34 60 11 147 1 239
-28 100 -31 181 -45 255 -44 l61 0 -44 14 c-55 17 -90 51 -137 130 -44 76 -94
126 -194 195 -82 57 -64 58 45 2z m-1515 29 c23 -7 21 -8 -17 -15 -71 -13
-162 -75 -322 -219 -36 -32 -98 -77 -138 -99 -40 -22 -73 -43 -73 -47 0 -10
136 -21 258 -21 l92 0 0 -45 c0 -33 4 -45 14 -45 10 0 16 14 18 43 l3 42 90 7
c92 7 267 53 334 88 20 10 60 37 90 59 76 57 84 55 79 -17 -16 -221 -251 -374
-630 -412 -289 -28 -698 64 -841 189 -46 41 -87 120 -93 183 l-6 53 20 -35
c10 -19 41 -48 67 -65 43 -27 57 -30 129 -30 102 0 148 21 366 164 267 177
457 252 560 222z"/>
</g>
</svg>
